<svg width="138" height="28" viewBox="0 0 138 28" fill="none" xmlns="http://www.w3.org/2000/svg">
<path d="M129.588 24.7123C128.004 24.7123 126.63 24.3879 125.466 23.7391C124.302 23.0712 123.396 22.1647 122.747 21.0198C122.117 19.8557 121.802 18.5294 121.802 17.041C121.802 15.3617 122.136 13.9305 122.804 12.7473C123.491 11.5451 124.379 10.6291 125.466 9.99941C126.554 9.35059 127.709 9.02618 128.93 9.02618C129.865 9.02618 130.752 9.21701 131.592 9.59867C132.432 9.96124 133.176 10.4765 133.825 11.1444C134.492 11.7932 135.017 12.5661 135.399 13.4629C135.781 14.3408 135.981 15.3044 136 16.354C135.981 16.7357 135.828 17.0505 135.542 17.2986C135.256 17.5467 134.922 17.6707 134.54 17.6707H123.405L122.718 15.2376H133.481L132.937 15.7529V15.0373C132.899 14.3694 132.68 13.7874 132.279 13.2912C131.878 12.776 131.382 12.3848 130.79 12.1176C130.199 11.8314 129.579 11.6882 128.93 11.6882C128.357 11.6882 127.804 11.7837 127.27 11.9745C126.754 12.1462 126.287 12.4325 125.867 12.8332C125.466 13.234 125.142 13.7683 124.894 14.4362C124.665 15.085 124.55 15.896 124.55 16.8692C124.55 17.9188 124.77 18.8348 125.209 19.6172C125.648 20.3996 126.239 21.0102 126.983 21.4491C127.728 21.8689 128.548 22.0788 129.445 22.0788C130.151 22.0788 130.733 22.0121 131.191 21.8785C131.649 21.7258 132.031 21.5445 132.336 21.3346C132.641 21.1247 132.909 20.9243 133.138 20.7335C133.424 20.5618 133.71 20.4759 133.996 20.4759C134.34 20.4759 134.626 20.5999 134.855 20.848C135.084 21.077 135.199 21.3537 135.199 21.6781C135.199 22.0979 134.989 22.4796 134.569 22.8231C134.054 23.3192 133.338 23.7581 132.422 24.1398C131.525 24.5215 130.58 24.7123 129.588 24.7123Z" fill="white"/>
<path d="M112.046 9.54134H118.772C119.154 9.54134 119.469 9.67492 119.717 9.94208C119.984 10.1902 120.118 10.505 120.118 10.8867C120.118 11.2493 119.984 11.5546 119.717 11.8027C119.469 12.0507 119.154 12.1748 118.772 12.1748H112.046C111.664 12.1748 111.34 12.0507 111.072 11.8027C110.824 11.5355 110.7 11.2206 110.7 10.8581C110.7 10.4764 110.824 10.1615 111.072 9.91346C111.34 9.66538 111.664 9.54134 112.046 9.54134ZM115.051 5.82019C115.471 5.82019 115.815 5.96331 116.082 6.24955C116.349 6.51671 116.482 6.8602 116.482 7.28003V20.5617C116.482 20.9052 116.54 21.1819 116.654 21.3918C116.769 21.6017 116.921 21.7448 117.112 21.8212C117.322 21.8975 117.532 21.9357 117.742 21.9357C117.952 21.9357 118.133 21.8975 118.286 21.8212C118.457 21.7448 118.658 21.7067 118.887 21.7067C119.116 21.7067 119.326 21.8116 119.517 22.0215C119.707 22.2314 119.803 22.5177 119.803 22.8803C119.803 23.3382 119.555 23.7104 119.059 23.9966C118.562 24.2828 118.028 24.426 117.456 24.426C117.131 24.426 116.75 24.3973 116.311 24.3401C115.872 24.2828 115.442 24.1397 115.023 23.9107C114.622 23.6817 114.288 23.3192 114.021 22.823C113.754 22.3078 113.62 21.5922 113.62 20.6762V7.28003C113.62 6.8602 113.754 6.51671 114.021 6.24955C114.307 5.96331 114.65 5.82019 115.051 5.82019Z" fill="white"/>
<path d="M107.377 9.14068C107.797 9.14068 108.141 9.2838 108.408 9.57004C108.675 9.83721 108.809 10.1807 108.809 10.6005V22.9662C108.809 23.386 108.675 23.7391 108.408 24.0253C108.141 24.2925 107.797 24.426 107.377 24.426C106.977 24.426 106.633 24.2925 106.347 24.0253C106.08 23.7391 105.946 23.386 105.946 22.9662V20.9053L106.547 20.9911C106.547 21.3346 106.404 21.7163 106.118 22.1361C105.851 22.5559 105.479 22.9662 105.002 23.3669C104.524 23.7486 103.962 24.073 103.313 24.3402C102.664 24.5882 101.967 24.7123 101.223 24.7123C99.9064 24.7123 98.7233 24.3783 97.6737 23.7104C96.6242 23.0234 95.7941 22.0884 95.1834 20.9053C94.5728 19.7221 94.2675 18.3768 94.2675 16.8692C94.2675 15.3235 94.5728 13.9686 95.1834 12.8046C95.7941 11.6215 96.6146 10.6959 97.6451 10.028C98.6947 9.36013 99.8587 9.02618 101.137 9.02618C101.958 9.02618 102.712 9.15976 103.399 9.42692C104.105 9.69408 104.715 10.0376 105.231 10.4574C105.746 10.8772 106.137 11.3257 106.404 11.8027C106.69 12.2607 106.834 12.6996 106.834 13.1195L105.946 13.2053V10.6005C105.946 10.1998 106.08 9.85629 106.347 9.57004C106.633 9.2838 106.977 9.14068 107.377 9.14068ZM101.538 22.0788C102.435 22.0788 103.227 21.8499 103.914 21.3919C104.601 20.9339 105.135 20.3137 105.517 19.5313C105.898 18.7298 106.089 17.8425 106.089 16.8692C106.089 15.8769 105.898 14.9896 105.517 14.2072C105.135 13.4248 104.601 12.8046 103.914 12.3466C103.227 11.8886 102.435 11.6596 101.538 11.6596C100.66 11.6596 99.8778 11.8886 99.1908 12.3466C98.5229 12.8046 97.9886 13.4248 97.5879 14.2072C97.2062 14.9896 97.0154 15.8769 97.0154 16.8692C97.0154 17.8425 97.2062 18.7298 97.5879 19.5313C97.9886 20.3137 98.5229 20.9339 99.1908 21.3919C99.8778 21.8499 100.66 22.0788 101.538 22.0788Z" fill="white"/>
<path d="M84.9081 24.7122C83.4578 24.7122 82.1029 24.4546 80.8434 23.9393C79.5839 23.405 78.4771 22.6703 77.523 21.7353C76.5879 20.7811 75.8533 19.6839 75.3189 18.4435C74.7846 17.2031 74.5175 15.8578 74.5175 14.4075C74.5175 12.9572 74.7846 11.6118 75.3189 10.3714C75.8533 9.13105 76.5879 8.04333 77.523 7.10827C78.4771 6.15413 79.5839 5.41944 80.8434 4.9042C82.1029 4.36988 83.4578 4.10272 84.9081 4.10272C85.8431 4.10272 86.7496 4.20768 87.6274 4.41759C88.5052 4.6275 89.2971 4.93283 90.0032 5.33356C90.2513 5.46715 90.4325 5.64843 90.547 5.87743C90.6615 6.08734 90.7188 6.29725 90.7188 6.50716C90.7188 6.9079 90.5852 7.26093 90.318 7.56626C90.07 7.8525 89.7551 7.99562 89.3734 7.99562C89.2399 7.99562 89.0967 7.97654 88.9441 7.93837C88.8105 7.90021 88.6865 7.8525 88.572 7.79525C88.0377 7.52809 87.4652 7.32772 86.8545 7.19414C86.2439 7.04148 85.595 6.96515 84.9081 6.96515C83.5341 6.96515 82.2937 7.2991 81.1869 7.967C80.0801 8.61581 79.2023 9.50317 78.5535 10.6291C77.9237 11.7549 77.6089 13.0144 77.6089 14.4075C77.6089 15.7814 77.9237 17.0409 78.5535 18.1859C79.2023 19.3117 80.0801 20.2086 81.1869 20.8765C82.2937 21.5254 83.5341 21.8498 84.9081 21.8498C85.576 21.8498 86.282 21.7734 87.0263 21.6208C87.7705 21.449 88.4002 21.2296 88.9155 20.9624L88.6865 21.7353V16.2967L89.1445 16.6974H85.3947C84.9749 16.6974 84.6218 16.5638 84.3356 16.2967C84.0684 16.0295 83.9348 15.686 83.9348 15.2662C83.9348 14.8464 84.0684 14.5029 84.3356 14.2357C84.6218 13.9686 84.9749 13.835 85.3947 13.835H90.3467C90.7474 13.835 91.0814 13.9781 91.3485 14.2643C91.6348 14.5315 91.7779 14.875 91.7779 15.2948V21.6494C91.7779 21.9547 91.7016 22.2123 91.5489 22.4223C91.3962 22.6322 91.2245 22.8039 91.0337 22.9375C90.1749 23.4718 89.2208 23.9012 88.1712 24.2256C87.1408 24.55 86.053 24.7122 84.9081 24.7122Z" fill="white"/>
<path d="M72.1617 22.9661C72.1617 23.386 72.0186 23.739 71.7324 24.0252C71.4652 24.2924 71.1313 24.426 70.7305 24.426C70.3298 24.426 69.9863 24.2924 69.7001 24.0252C69.4329 23.739 69.2993 23.386 69.2993 22.9661V4.70386C69.2993 4.28403 69.4424 3.94054 69.7287 3.67338C70.0149 3.38714 70.3584 3.24402 70.7592 3.24402C71.179 3.24402 71.5129 3.38714 71.761 3.67338C72.0282 3.94054 72.1617 4.28403 72.1617 4.70386V22.9661Z" fill="white"/>
<path d="M65.3824 22.9661C65.3824 23.386 65.2393 23.739 64.9531 24.0252C64.6859 24.2924 64.352 24.426 63.9512 24.426C63.5505 24.426 63.207 24.2924 62.9208 24.0252C62.6536 23.739 62.52 23.386 62.52 22.9661V4.70386C62.52 4.28403 62.6631 3.94054 62.9494 3.67338C63.2356 3.38714 63.5791 3.24402 63.9799 3.24402C64.3997 3.24402 64.7336 3.38714 64.9817 3.67338C65.2489 3.94054 65.3824 4.28403 65.3824 4.70386V22.9661Z" fill="white"/>
<path d="M59.6238 16.8979C59.6238 18.4245 59.2899 19.7794 58.622 20.9625C57.9541 22.1266 57.0476 23.0425 55.9026 23.7104C54.7577 24.3783 53.4696 24.7123 52.0384 24.7123C50.6072 24.7123 49.3191 24.3783 48.1741 23.7104C47.0291 23.0425 46.1131 22.1266 45.4262 20.9625C44.7583 19.7794 44.4243 18.4245 44.4243 16.8979C44.4243 15.3521 44.7583 13.9973 45.4262 12.8332C46.1131 11.6501 47.0291 10.7246 48.1741 10.0567C49.3191 9.36968 50.6072 9.02618 52.0384 9.02618C53.4696 9.02618 54.7577 9.36968 55.9026 10.0567C57.0476 10.7246 57.9541 11.6501 58.622 12.8332C59.2899 13.9973 59.6238 15.3521 59.6238 16.8979ZM56.7614 16.8979C56.7614 15.8483 56.5515 14.9419 56.1316 14.1786C55.7118 13.3962 55.1393 12.7855 54.4142 12.3466C53.7081 11.8886 52.9162 11.6596 52.0384 11.6596C51.1606 11.6596 50.3591 11.8886 49.6339 12.3466C48.9088 12.7855 48.3363 13.3962 47.9165 14.1786C47.4967 14.9419 47.2867 15.8483 47.2867 16.8979C47.2867 17.9092 47.4967 18.8061 47.9165 19.5885C48.3363 20.3709 48.9088 20.9816 49.6339 21.4205C50.3591 21.8594 51.1606 22.0788 52.0384 22.0788C52.9162 22.0788 53.7081 21.8594 54.4142 21.4205C55.1393 20.9816 55.7118 20.3709 56.1316 19.5885C56.5515 18.8061 56.7614 17.9092 56.7614 16.8979Z" fill="white"/>
<path d="M38.3264 24.426C37.8685 24.426 37.4963 24.2924 37.2101 24.0252C36.9429 23.739 36.8094 23.3859 36.8094 22.9661V5.82019H39.8722V22.9661C39.8722 23.3859 39.7195 23.739 39.4142 24.0252C39.1279 24.2924 38.7653 24.426 38.3264 24.426ZM31.8287 7.13691C31.428 7.13691 31.0845 7.01287 30.7983 6.76479C30.512 6.49763 30.3689 6.15414 30.3689 5.73432C30.3689 5.33358 30.512 5.00917 30.7983 4.76109C31.0845 4.51302 31.428 4.38898 31.8287 4.38898H44.8528C45.2535 4.38898 45.5875 4.52256 45.8546 4.78972C46.1409 5.03779 46.284 5.3622 46.284 5.76294C46.284 6.18276 46.1409 6.51671 45.8546 6.76479C45.5875 7.01287 45.2535 7.13691 44.8528 7.13691H31.8287Z" fill="white"/>
<g style="mix-blend-mode:lighten">
<path d="M5.83361 22.6677C5.83361 23.5146 5.14707 24.2012 4.30017 24.2012C3.45327 24.2012 2.76672 23.5146 2.76672 22.6677C2.76672 21.8208 3.45327 21.1343 4.30017 21.1343C5.14707 21.1343 5.83361 21.8208 5.83361 22.6677Z" fill="#FF6961"/>
<path fill-rule="evenodd" clip-rule="evenodd" d="M2 16.7895C2 16.0837 2.57212 15.5116 3.27787 15.5116C7.79466 15.5116 11.4562 19.1732 11.4562 23.69C11.4562 24.3957 10.8841 24.9678 10.1784 24.9678C9.47262 24.9678 8.9005 24.3957 8.9005 23.69C8.9005 20.5847 6.38316 18.0673 3.27787 18.0673C2.57212 18.0673 2 17.4952 2 16.7895Z" fill="#FF6961"/>
<path fill-rule="evenodd" clip-rule="evenodd" d="M2 11.4224C2 10.7167 2.57212 10.1445 3.27787 10.1445C10.7588 10.1445 16.8233 16.209 16.8233 23.69C16.8233 24.3957 16.2512 24.9678 15.5454 24.9678C14.8397 24.9678 14.2676 24.3957 14.2676 23.69C14.2676 17.6205 9.34731 12.7003 3.27787 12.7003C2.57212 12.7003 2 12.1282 2 11.4224Z" fill="#FF6961"/>
<path fill-rule="evenodd" clip-rule="evenodd" d="M2 6.05534C2 5.34959 2.57212 4.77747 3.27787 4.77747C13.7229 4.77747 22.1904 13.2449 22.1904 23.6899C22.1904 24.3957 21.6182 24.9678 20.9125 24.9678C20.2067 24.9678 19.6346 24.3957 19.6346 23.6899C19.6346 14.6564 12.3115 7.33321 3.27787 7.33321C2.57212 7.33321 2 6.76108 2 6.05534Z" fill="#FF6961"/>
</g>
<g style="mix-blend-mode:lighten">
<path d="M25.2575 22.6677C25.2575 23.5146 25.944 24.2012 26.7909 24.2012C27.6378 24.2012 28.3243 23.5146 28.3243 22.6677C28.3243 21.8208 27.6378 21.1343 26.7909 21.1343C25.944 21.1343 25.2575 21.8208 25.2575 22.6677Z" fill="#7ABD7E"/>
<path fill-rule="evenodd" clip-rule="evenodd" d="M29.0911 16.7895C29.0911 16.0837 28.5189 15.5116 27.8132 15.5116C23.2964 15.5116 19.6348 19.1732 19.6348 23.69C19.6348 24.3957 20.2069 24.9678 20.9127 24.9678C21.6184 24.9678 22.1906 24.3957 22.1906 23.69C22.1906 20.5847 24.7079 18.0673 27.8132 18.0673C28.5189 18.0673 29.0911 17.4952 29.0911 16.7895Z" fill="#7ABD7E"/>
<path fill-rule="evenodd" clip-rule="evenodd" d="M29.0911 11.4224C29.0911 10.7167 28.5189 10.1445 27.8132 10.1445C20.3323 10.1445 14.2678 16.209 14.2678 23.69C14.2678 24.3957 14.8399 24.9678 15.5456 24.9678C16.2514 24.9678 16.8235 24.3957 16.8235 23.69C16.8235 17.6205 21.7438 12.7003 27.8132 12.7003C28.5189 12.7003 29.0911 12.1282 29.0911 11.4224Z" fill="#7ABD7E"/>
<path fill-rule="evenodd" clip-rule="evenodd" d="M29.0911 6.05534C29.0911 5.34959 28.5189 4.77747 27.8132 4.77747C17.3681 4.77747 8.90071 13.2449 8.90071 23.6899C8.90071 24.3957 9.47283 24.9678 10.1786 24.9678C10.8843 24.9678 11.4565 24.3957 11.4565 23.6899C11.4565 14.6564 18.7796 7.33321 27.8132 7.33321C28.5189 7.33321 29.0911 6.76108 29.0911 6.05534Z" fill="#7ABD7E"/>
</g>
</svg>
