<svg width="31" height="25" viewBox="0 0 31 25" fill="none" xmlns="http://www.w3.org/2000/svg">
<g style="mix-blend-mode:lighten">
<path d="M5.83361 22.6677C5.83361 23.5146 5.14707 24.2012 4.30017 24.2012C3.45327 24.2012 2.76672 23.5146 2.76672 22.6677C2.76672 21.8208 3.45327 21.1343 4.30017 21.1343C5.14707 21.1343 5.83361 21.8208 5.83361 22.6677Z" fill="#FF6961"/>
<path fill-rule="evenodd" clip-rule="evenodd" d="M2 16.7895C2 16.0837 2.57212 15.5116 3.27787 15.5116C7.79466 15.5116 11.4562 19.1732 11.4562 23.69C11.4562 24.3957 10.8841 24.9678 10.1784 24.9678C9.47262 24.9678 8.9005 24.3957 8.9005 23.69C8.9005 20.5847 6.38316 18.0673 3.27787 18.0673C2.57212 18.0673 2 17.4952 2 16.7895Z" fill="#FF6961"/>
<path fill-rule="evenodd" clip-rule="evenodd" d="M2 11.4224C2 10.7167 2.57212 10.1445 3.27787 10.1445C10.7588 10.1445 16.8233 16.209 16.8233 23.69C16.8233 24.3957 16.2512 24.9678 15.5454 24.9678C14.8397 24.9678 14.2676 24.3957 14.2676 23.69C14.2676 17.6205 9.34731 12.7003 3.27787 12.7003C2.57212 12.7003 2 12.1282 2 11.4224Z" fill="#FF6961"/>
<path fill-rule="evenodd" clip-rule="evenodd" d="M2 6.05534C2 5.34959 2.57212 4.77747 3.27787 4.77747C13.7229 4.77747 22.1904 13.2449 22.1904 23.6899C22.1904 24.3957 21.6182 24.9678 20.9125 24.9678C20.2067 24.9678 19.6346 24.3957 19.6346 23.6899C19.6346 14.6564 12.3115 7.33321 3.27787 7.33321C2.57212 7.33321 2 6.76108 2 6.05534Z" fill="#FF6961"/>
</g>
<g style="mix-blend-mode:lighten">
<path d="M25.2575 22.6677C25.2575 23.5146 25.944 24.2012 26.7909 24.2012C27.6378 24.2012 28.3243 23.5146 28.3243 22.6677C28.3243 21.8208 27.6378 21.1343 26.7909 21.1343C25.944 21.1343 25.2575 21.8208 25.2575 22.6677Z" fill="#7ABD7E"/>
<path fill-rule="evenodd" clip-rule="evenodd" d="M29.0911 16.7895C29.0911 16.0837 28.5189 15.5116 27.8132 15.5116C23.2964 15.5116 19.6348 19.1732 19.6348 23.69C19.6348 24.3957 20.2069 24.9678 20.9127 24.9678C21.6184 24.9678 22.1906 24.3957 22.1906 23.69C22.1906 20.5847 24.7079 18.0673 27.8132 18.0673C28.5189 18.0673 29.0911 17.4952 29.0911 16.7895Z" fill="#7ABD7E"/>
<path fill-rule="evenodd" clip-rule="evenodd" d="M29.0911 11.4224C29.0911 10.7167 28.5189 10.1445 27.8132 10.1445C20.3323 10.1445 14.2678 16.209 14.2678 23.69C14.2678 24.3957 14.8399 24.9678 15.5456 24.9678C16.2514 24.9678 16.8235 24.3957 16.8235 23.69C16.8235 17.6205 21.7438 12.7003 27.8132 12.7003C28.5189 12.7003 29.0911 12.1282 29.0911 11.4224Z" fill="#7ABD7E"/>
<path fill-rule="evenodd" clip-rule="evenodd" d="M29.0911 6.05534C29.0911 5.34959 28.5189 4.77747 27.8132 4.77747C17.3681 4.77747 8.90071 13.2449 8.90071 23.6899C8.90071 24.3957 9.47283 24.9678 10.1786 24.9678C10.8843 24.9678 11.4565 24.3957 11.4565 23.6899C11.4565 14.6564 18.7796 7.33321 27.8132 7.33321C28.5189 7.33321 29.0911 6.76108 29.0911 6.05534Z" fill="#7ABD7E"/>
</g>
</svg> 